PathFileType	4	(X/Y/Z)	c:/Users/goper/Files/vsCode/490R/osim_files/C06/C06_Static_01.trc
DataRate	CameraRate	NumFrames	NumMarkers	Units                	OrigDataRate	OrigDataStartFrame	OrigNumFrames
250.00	250.00	10	36	mm	250.0	1286	1714
                Frame#	Time	LPSIS			LASIS			LTH1			LTH2			LTH3			LTH4			LLFE			LMFE			LSH1			LSH2			LSH3			LSH4			LLMAL			LMMAL			LCAL			LMTP5			LTOE			LMTP1			RPSIS			RASIS			RTH1			RTH2			RTH3			RTH4			RLFE			RMFE			RSH1			RSH2			RSH3			RSH4			RLMAL			RMMAL			RCAL			RMTP1			RTOE			RMTP5		
		X1	Y1	Z1	X2	Y2	Z2	X3	Y3	Z3	X4	Y4	Z4	X5	Y5	Z5	X6	Y6	Z6	X7	Y7	Z7	X8	Y8	Z8	X9	Y9	Z9	X10	Y10	Z10	X11	Y11	Z11	X12	Y12	Z12	X13	Y13	Z13	X14	Y14	Z14	X15	Y15	Z15	X16	Y16	Z16	X17	Y17	Z17	X18	Y18	Z18	X19	Y19	Z19	X20	Y20	Z20	X21	Y21	Z21	X22	Y22	Z22	X23	Y23	Z23	X24	Y24	Z24	X25	Y25	Z25	X26	Y26	Z26	X27	Y27	Z27	X28	Y28	Z28	X29	Y29	Z29	X30	Y30	Z30	X31	Y31	Z31	X32	Y32	Z32	X33	Y33	Z33	X34	Y34	Z34	X35	Y35	Z35	X36	Y36	Z36

1286	5.14000	-388.73856	1014.40936	485.33319	-220.52715	970.20862	371.61166	-321.06259	801.61029	292.99207	-313.24866	739.84845	282.82745	-246.68784	802.10760	304.80969	-248.09599	741.82690	293.50330	-324.64969	481.51666	295.96109	-332.80911	447.72946	406.88797	-398.48093	377.75470	263.95569	-391.50421	334.59659	259.84811	-333.87793	383.10168	262.01382	-337.06082	339.22797	257.60419	-358.16266	92.90267	269.61603	-346.65176	98.02741	347.87433	-421.93607	66.59084	312.75357	-247.50307	30.72162	238.09358	-195.55951	55.68392	306.03534	-220.95610	35.94321	352.17401	-384.60974	1012.85504	557.78882	-195.70920	968.53094	612.67847	-288.31781	791.48633	708.52026	-281.12552	729.24792	710.36542	-216.04993	792.15973	686.40131	-219.55705	729.51343	691.98608	-303.66580	462.71033	689.12970	-298.66132	462.90213	579.55023	-362.89038	392.74454	717.20483	-359.94125	345.08899	723.73889	-303.02673	386.16534	709.97382	-309.05542	340.27710	716.08533	-336.69257	91.72946	697.96814	-317.26544	105.65953	619.27118	-400.42319	62.42208	656.79358	-197.79411	45.24400	622.17676	-176.43454	53.16228	661.53290	-219.53488	29.10007	728.74139
1287	5.14400	-388.75818	1014.42761	485.30923	-220.50328	970.21118	371.61624	-321.06534	801.60846	292.96817	-313.23752	739.85706	282.82870	-246.65456	802.11145	304.81561	-248.07249	741.84070	293.47684	-324.64276	481.50873	295.97678	-332.80811	447.72366	406.86465	-398.49359	377.74023	263.95572	-391.50635	334.61160	259.85550	-333.86371	383.09500	262.01486	-337.06100	339.23447	257.60007	-358.14825	92.92112	269.59253	-346.64301	98.04361	347.85245	-421.66437	66.43270	312.70752	-247.49774	30.71007	238.10548	-195.65382	55.80252	306.09427	-220.94380	35.96167	352.16501	-384.60583	1012.87738	557.77112	-195.70468	968.52222	612.65765	-288.32822	791.48517	708.51172	-281.14825	729.24255	710.33777	-216.03741	792.18079	686.43182	-219.52676	729.54663	691.97961	-303.65649	462.71133	689.12891	-298.62692	462.92282	579.54871	-362.88400	392.76462	717.18909	-359.93552	345.08258	723.71710	-303.02216	386.17859	709.96204	-309.03854	340.27475	716.09900	-336.64319	91.76016	697.98901	-317.00342	105.90518	619.26056	-400.43042	62.46574	656.77692	-198.01373	44.96441	622.44818	-176.45410	53.15132	661.52252	-219.49773	29.11494	728.73309
1288	5.14800	-388.77182	1014.43103	485.31564	-220.49707	970.18921	371.60788	-321.07504	801.58984	292.98685	-313.23264	739.83710	282.82446	-246.62276	802.09039	304.79611	-248.06659	741.80853	293.48804	-324.63602	481.49561	295.97211	-332.82034	447.72134	406.86520	-398.48318	377.72629	263.95779	-391.32547	334.81750	259.84955	-333.86426	383.09027	262.01782	-337.04456	339.20856	257.60876	-358.13690	92.90269	269.60034	-346.65924	98.03044	347.84186	-421.92874	66.63649	312.68579	-247.49911	30.68742	238.11568	-195.62660	55.61995	306.08673	-220.94066	35.93878	352.14240	-384.62576	1012.87885	557.76233	-195.68021	968.51910	612.65027	-288.32932	791.48126	708.48779	-281.16022	729.22034	710.35095	-216.05043	792.15479	686.39807	-219.52946	729.54120	691.97131	-303.63776	462.72476	689.11304	-298.64560	462.89166	579.57007	-362.89484	392.76309	717.18750	-359.95209	345.07947	723.72314	-303.02509	386.17636	709.95312	-309.03647	340.28650	716.09668	-336.65289	91.76269	697.96582	-316.99738	105.88204	619.25165	-400.42670	62.45674	656.74841	-197.78052	45.24697	622.17224	-176.44455	53.16017	661.52521	-219.50020	29.10249	728.73602
1289	5.15200	-388.83655	1014.45239	485.30701	-220.48511	970.17682	371.60748	-321.03757	801.56934	292.97104	-313.22815	739.82745	282.81851	-246.62286	802.06866	304.79742	-248.08366	741.79865	293.48114	-324.64035	481.48309	295.96796	-332.79367	447.71326	406.84396	-398.48801	377.71039	263.96063	-391.31268	334.82477	259.81668	-333.86172	383.05933	262.00034	-337.03241	339.21024	257.60959	-358.14755	92.87442	269.60233	-346.67484	98.02044	347.82227	-421.95383	66.61890	312.67615	-247.49355	30.68154	238.11116	-195.58551	55.62801	306.03888	-220.95546	35.92771	352.14111	-384.65097	1012.86115	557.76917	-195.71417	968.49091	612.65784	-288.35660	791.48291	708.49976	-281.19998	729.21045	710.34613	-216.03352	792.16522	686.40094	-219.53259	729.51947	691.97095	-303.67255	462.69836	689.11017	-298.65219	462.89090	579.56500	-362.78061	392.80322	717.15955	-360.13660	344.95801	723.28619	-303.01782	386.17816	709.95386	-309.04550	340.26996	716.10559	-336.68777	91.70602	697.93652	-317.00778	105.86658	619.23840	-400.46567	62.44370	656.74982	-197.78778	45.22889	622.15979	-176.44168	53.14166	661.51880	-219.48648	29.10382	728.71307
1290	5.15600	-388.81769	1014.47278	485.27371	-220.48750	970.16290	371.60211	-321.04767	801.58154	292.97507	-313.23535	739.79913	282.84177	-246.62297	802.05585	304.80637	-248.07045	741.76978	293.49457	-324.64609	481.45016	295.97565	-332.78134	447.71317	406.86453	-398.47858	377.69336	263.96408	-391.35971	334.75943	259.85007	-333.86414	383.04822	261.99976	-337.02719	339.17847	257.59204	-358.15494	92.86173	269.59857	-346.69128	98.00953	347.82352	-421.94708	66.60789	312.66528	-247.51337	30.65582	238.09848	-195.68062	55.73357	306.06000	-220.95180	35.90630	352.13324	-384.66696	1012.84393	557.76813	-195.72107	968.47339	612.64697	-288.33755	791.46936	708.48730	-281.19299	729.19849	710.34784	-216.07121	792.12195	686.40131	-219.55444	729.50775	691.97894	-303.66650	462.70651	689.11188	-298.62579	462.87741	579.54370	-362.79489	392.80667	717.15424	-360.17349	344.89880	723.28131	-303.01962	386.16693	709.94391	-309.03275	340.26260	716.08215	-336.71661	91.69238	697.95752	-317.24319	105.60983	619.28381	-400.44641	62.42691	656.75854	-198.03236	44.89556	622.46478	-176.44685	53.11841	661.52069	-219.50951	29.08354	728.72833
1291	5.16000	-388.83093	1014.50665	485.27454	-220.47842	970.15692	371.62048	-321.04105	801.55945	292.98376	-313.21204	739.80579	282.82187	-246.63329	802.03442	304.80698	-248.09183	741.74414	293.48395	-324.66586	481.42822	295.97040	-332.75851	447.73901	406.85123	-398.47809	377.66809	263.96478	-391.50739	334.50262	259.87363	-333.87491	383.01318	261.99911	-337.01361	339.18143	257.58234	-358.13773	92.85140	269.57574	-346.70627	98.00415	347.82291	-421.96637	66.58456	312.67233	-247.50198	30.63426	238.11554	-195.60931	55.56647	306.03690	-220.95770	35.89383	352.15326	-384.65201	1012.82495	557.77216	-195.71584	968.46130	612.66711	-288.35043	791.47070	708.50488	-281.22757	729.17657	710.35754	-216.06282	792.13849	686.42731	-219.56650	729.48236	691.97198	-303.67566	462.68295	689.11823	-298.66602	462.85507	579.56830	-362.77319	392.81357	717.16821	-360.04175	345.00131	723.72888	-303.03052	386.14386	709.94617	-309.06607	340.24683	716.10260	-336.72644	91.68838	697.96704	-317.25516	105.59300	619.28833	-400.46332	62.41383	656.75037	-198.05811	44.86694	622.47852	-176.46756	53.08941	661.51050	-219.52463	29.06350	728.73016
1292	5.16400	-388.80911	1014.51678	485.27908	-220.45108	970.15094	371.58560	-321.03412	801.54669	292.96750	-313.20786	739.79010	282.82642	-246.62471	802.03357	304.78152	-248.08284	741.73846	293.46991	-324.65234	481.42978	295.95956	-332.73795	447.75592	406.84436	-398.46625	377.67056	263.95444	-391.49976	334.46408	259.90497	-333.86667	383.01913	261.98843	-337.02579	339.16876	257.58292	-358.14548	92.82901	269.58151	-346.69339	98.01106	347.82568	-421.96338	66.56898	312.66086	-247.51422	30.63637	238.09520	-195.63898	55.49329	306.06442	-220.96196	35.89219	352.12531	-384.66055	1012.83173	557.78033	-195.72958	968.44037	612.64954	-288.34891	791.47150	708.50012	-281.23419	729.17755	710.35120	-216.08879	792.11987	686.40338	-219.55634	729.50861	691.96173	-303.68964	462.68805	689.09827	-298.66669	462.82462	579.56207	-362.77072	392.80597	717.15625	-360.04474	344.99640	723.73218	-303.04446	386.13644	709.96185	-309.05432	340.24286	716.09515	-336.72751	91.68685	697.96613	-317.25424	105.59154	619.26489	-400.45505	62.37590	656.74658	-198.04686	44.84937	622.47980	-176.46861	53.08614	661.52411	-219.50803	29.07620	728.72748
1293	5.16800	-388.84821	1014.51685	485.27274	-220.46819	970.14484	371.58493	-321.02295	801.53430	292.98212	-313.19040	739.79401	282.81882	-246.61882	802.04120	304.76703	-248.08186	741.73584	293.46851	-324.68381	481.40732	295.95392	-332.74701	447.75659	406.83377	-398.45474	377.66647	263.95554	-391.50162	334.47943	259.86554	-333.87012	383.00107	261.98849	-337.04813	339.14578	257.58069	-358.13641	92.82358	269.58624	-346.70517	97.98558	347.83331	-421.94815	66.55449	312.65768	-247.53070	30.61555	238.09184	-195.60413	55.54356	306.00510	-220.96602	35.87679	352.13770	-384.63986	1012.81995	557.77411	-195.74666	968.43658	612.65149	-288.37762	791.45172	708.49536	-281.23334	729.16418	710.36560	-216.04727	792.10889	686.38702	-219.57283	729.48560	691.94379	-303.66205	462.68390	689.09814	-298.63660	462.83163	579.54529	-362.91348	392.74966	717.21045	-360.20905	344.86365	723.29724	-303.04205	386.13718	709.95496	-309.04974	340.24374	716.09741	-336.74756	91.66736	697.94092	-317.27191	105.58955	619.25940	-400.42627	62.35489	656.75330	-198.06648	44.83798	622.47406	-176.47726	53.07809	661.50995	-219.51839	29.06239	728.73810
1294	5.17200	-388.81271	1014.47668	485.24268	-220.38896	970.04462	371.63754	-321.02597	801.54144	292.96616	-313.21735	739.78906	282.84814	-246.62384	802.02948	304.76120	-248.08096	741.74127	293.44598	-324.68054	481.42715	295.95441	-332.78125	447.76508	406.84052	-398.47217	377.66055	263.94659	-391.30493	334.78912	259.77737	-333.86032	383.01550	261.96960	-337.05371	339.14734	257.58426	-358.16092	92.82181	269.57877	-346.71429	97.99429	347.81747	-421.95935	66.54834	312.64978	-247.51477	30.63784	238.08322	-195.62941	55.56804	306.00665	-220.97028	35.88514	352.14432	-384.64822	1012.81403	557.77606	-195.74332	968.43738	612.65137	-288.37521	791.46558	708.47858	-281.25360	729.16754	710.33936	-216.10315	792.10510	686.40607	-219.58171	729.49121	691.94647	-303.67810	462.68491	689.10498	-298.65961	462.84689	579.53540	-362.91278	392.73944	717.17810	-360.19522	344.86957	723.30188	-303.06540	386.13379	709.95770	-309.06137	340.25848	716.06805	-336.72491	91.68780	697.95032	-317.03851	105.80670	619.23334	-400.43039	62.34989	656.77814	-198.07581	44.83564	622.47742	-176.49350	53.08733	661.51196	-219.51761	29.06477	728.74750
1295	5.17600	-388.84000	1014.48578	485.24509	-220.38977	970.06274	371.63098	-321.02075	801.52686	292.96194	-313.20505	739.77405	282.82642	-246.58366	802.06519	304.76486	-248.06442	741.75842	293.44473	-324.65424	481.43335	295.93985	-332.76761	447.76242	406.83859	-398.48080	377.67596	263.93015	-391.32532	334.75070	259.78363	-333.84457	383.04053	261.96451	-337.01544	339.18478	257.55130	-358.14255	92.82446	269.58115	-346.72079	97.97479	347.80652	-421.95483	66.55710	312.67728	-247.50868	30.65834	238.06668	-195.60672	55.60719	306.01169	-220.96339	35.88893	352.13104	-384.62833	1012.78992	557.74902	-195.71965	968.45355	612.64478	-288.40964	791.44269	708.45856	-281.28677	729.14612	710.32416	-216.09778	792.11157	686.39075	-219.58919	729.48944	691.94177	-303.69672	462.68030	689.10114	-298.62900	462.85770	579.51929	-362.90631	392.73840	717.19177	-360.21924	344.87421	723.28729	-303.06445	386.14053	709.94171	-309.06805	340.25232	716.07532	-336.73880	91.68761	697.92914	-317.24615	105.60841	619.25354	-400.44437	62.36288	656.77710	-198.06847	44.85376	622.46130	-176.48849	53.09256	661.51465	-219.54362	29.05800	728.73895
